<?xml version="1.0" encoding="utf-8" standalone="no"?>
<!DOCTYPE svg PUBLIC "-//W3C//DTD SVG 1.1//EN"
  "http://www.w3.org/Graphics/SVG/1.1/DTD/svg11.dtd">
<svg xmlns:xlink="http://www.w3.org/1999/xlink" width="998.716562pt" height="369.891875pt" viewBox="0 0 998.716562 369.891875" xmlns="http://www.w3.org/2000/svg" version="1.1">
 <metadata>
  <rdf:RDF xmlns:dc="http://purl.org/dc/elements/1.1/" xmlns:cc="http://creativecommons.org/ns#" xmlns:rdf="http://www.w3.org/1999/02/22-rdf-syntax-ns#">
   <cc:Work>
    <dc:type rdf:resource="http://purl.org/dc/dcmitype/StillImage"/>
    <dc:date>2025-12-19T04:49:04.855097</dc:date>
    <dc:format>image/svg+xml</dc:format>
    <dc:creator>
     <cc:Agent>
      <dc:title>Matplotlib v3.10.8, https://matplotlib.org/</dc:title>
     </cc:Agent>
    </dc:creator>
   </cc:Work>
  </rdf:RDF>
 </metadata>
 <defs>
  <style type="text/css">*{stroke-linejoin: round; stroke-linecap: butt}</style>
 </defs>
 <g id="figure_1">
  <g id="patch_1">
   <path d="M 0 369.891875 
L 998.716562 369.891875 
L 998.716562 -0 
L 0 -0 
z
" style="fill: #ffffff"/>
  </g>
  <g id="axes_1">
   <g id="patch_2">
    <path d="M 50.596563 333.9 
L 493.270606 333.9 
L 493.270606 82.752 
L 50.596563 82.752 
z
" style="fill: #ffffff"/>
   </g>
   <g id="matplotlib.axis_1">
    <g id="xtick_1">
     <g id="line2d_1">
      <path d="M 78.457167 333.9 
L 78.457167 82.752 
" clip-path="url(#p58928ea3fb)" style="fill: none; stroke-dasharray: 2.96,1.28; stroke-dashoffset: 0; stroke: #cccccc; stroke-opacity: 0.3; stroke-width: 0.8"/>
     </g>
     <g id="line2d_2"/>
     <g id="text_1">
      <text style="font-size: 10px; font-family: 'Arial', 'DejaVu Sans', 'Helvetica', sans-serif; text-anchor: middle; fill: #262626" x="78.457167" y="344.998437" transform="rotate(-0 78.457167 344.998437)">0</text>
     </g>
    </g>
    <g id="xtick_2">
     <g id="line2d_3">
      <path d="M 117.15245 333.9 
L 117.15245 82.752 
" clip-path="url(#p58928ea3fb)" style="fill: none; stroke-dasharray: 2.96,1.28; stroke-dashoffset: 0; stroke: #cccccc; stroke-opacity: 0.3; stroke-width: 0.8"/>
     </g>
     <g id="line2d_4"/>
     <g id="text_2">
      <text style="font-size: 10px; font-family: 'Arial', 'DejaVu Sans', 'Helvetica', sans-serif; text-anchor: middle; fill: #262626" x="117.15245" y="344.998437" transform="rotate(-0 117.15245 344.998437)">2</text>
     </g>
    </g>
    <g id="xtick_3">
     <g id="line2d_5">
      <path d="M 155.847734 333.9 
L 155.847734 82.752 
" clip-path="url(#p58928ea3fb)" style="fill: none; stroke-dasharray: 2.96,1.28; stroke-dashoffset: 0; stroke: #cccccc; stroke-opacity: 0.3; stroke-width: 0.8"/>
     </g>
     <g id="line2d_6"/>
     <g id="text_3">
      <text style="font-size: 10px; font-family: 'Arial', 'DejaVu Sans', 'Helvetica', sans-serif; text-anchor: middle; fill: #262626" x="155.847734" y="344.998437" transform="rotate(-0 155.847734 344.998437)">4</text>
     </g>
    </g>
    <g id="xtick_4">
     <g id="line2d_7">
      <path d="M 194.543017 333.9 
L 194.543017 82.752 
" clip-path="url(#p58928ea3fb)" style="fill: none; stroke-dasharray: 2.96,1.28; stroke-dashoffset: 0; stroke: #cccccc; stroke-opacity: 0.3; stroke-width: 0.8"/>
     </g>
     <g id="line2d_8"/>
     <g id="text_4">
      <text style="font-size: 10px; font-family: 'Arial', 'DejaVu Sans', 'Helvetica', sans-serif; text-anchor: middle; fill: #262626" x="194.543017" y="344.998437" transform="rotate(-0 194.543017 344.998437)">6</text>
     </g>
    </g>
    <g id="xtick_5">
     <g id="line2d_9">
      <path d="M 233.238301 333.9 
L 233.238301 82.752 
" clip-path="url(#p58928ea3fb)" style="fill: none; stroke-dasharray: 2.96,1.28; stroke-dashoffset: 0; stroke: #cccccc; stroke-opacity: 0.3; stroke-width: 0.8"/>
     </g>
     <g id="line2d_10"/>
     <g id="text_5">
      <text style="font-size: 10px; font-family: 'Arial', 'DejaVu Sans', 'Helvetica', sans-serif; text-anchor: middle; fill: #262626" x="233.238301" y="344.998437" transform="rotate(-0 233.238301 344.998437)">8</text>
     </g>
    </g>
    <g id="xtick_6">
     <g id="line2d_11">
      <path d="M 271.933584 333.9 
L 271.933584 82.752 
" clip-path="url(#p58928ea3fb)" style="fill: none; stroke-dasharray: 2.96,1.28; stroke-dashoffset: 0; stroke: #cccccc; stroke-opacity: 0.3; stroke-width: 0.8"/>
     </g>
     <g id="line2d_12"/>
     <g id="text_6">
      <text style="font-size: 10px; font-family: 'Arial', 'DejaVu Sans', 'Helvetica', sans-serif; text-anchor: middle; fill: #262626" x="271.933584" y="344.998437" transform="rotate(-0 271.933584 344.998437)">10</text>
     </g>
    </g>
    <g id="xtick_7">
     <g id="line2d_13">
      <path d="M 310.628868 333.9 
L 310.628868 82.752 
" clip-path="url(#p58928ea3fb)" style="fill: none; stroke-dasharray: 2.96,1.28; stroke-dashoffset: 0; stroke: #cccccc; stroke-opacity: 0.3; stroke-width: 0.8"/>
     </g>
     <g id="line2d_14"/>
     <g id="text_7">
      <text style="font-size: 10px; font-family: 'Arial', 'DejaVu Sans', 'Helvetica', sans-serif; text-anchor: middle; fill: #262626" x="310.628868" y="344.998437" transform="rotate(-0 310.628868 344.998437)">12</text>
     </g>
    </g>
    <g id="xtick_8">
     <g id="line2d_15">
      <path d="M 349.324151 333.9 
L 349.324151 82.752 
" clip-path="url(#p58928ea3fb)" style="fill: none; stroke-dasharray: 2.96,1.28; stroke-dashoffset: 0; stroke: #cccccc; stroke-opacity: 0.3; stroke-width: 0.8"/>
     </g>
     <g id="line2d_16"/>
     <g id="text_8">
      <text style="font-size: 10px; font-family: 'Arial', 'DejaVu Sans', 'Helvetica', sans-serif; text-anchor: middle; fill: #262626" x="349.324151" y="344.998437" transform="rotate(-0 349.324151 344.998437)">14</text>
     </g>
    </g>
    <g id="xtick_9">
     <g id="line2d_17">
      <path d="M 388.019435 333.9 
L 388.019435 82.752 
" clip-path="url(#p58928ea3fb)" style="fill: none; stroke-dasharray: 2.96,1.28; stroke-dashoffset: 0; stroke: #cccccc; stroke-opacity: 0.3; stroke-width: 0.8"/>
     </g>
     <g id="line2d_18"/>
     <g id="text_9">
      <text style="font-size: 10px; font-family: 'Arial', 'DejaVu Sans', 'Helvetica', sans-serif; text-anchor: middle; fill: #262626" x="388.019435" y="344.998437" transform="rotate(-0 388.019435 344.998437)">16</text>
     </g>
    </g>
    <g id="xtick_10">
     <g id="line2d_19">
      <path d="M 426.714718 333.9 
L 426.714718 82.752 
" clip-path="url(#p58928ea3fb)" style="fill: none; stroke-dasharray: 2.96,1.28; stroke-dashoffset: 0; stroke: #cccccc; stroke-opacity: 0.3; stroke-width: 0.8"/>
     </g>
     <g id="line2d_20"/>
     <g id="text_10">
      <text style="font-size: 10px; font-family: 'Arial', 'DejaVu Sans', 'Helvetica', sans-serif; text-anchor: middle; fill: #262626" x="426.714718" y="344.998437" transform="rotate(-0 426.714718 344.998437)">18</text>
     </g>
    </g>
    <g id="xtick_11">
     <g id="line2d_21">
      <path d="M 465.410002 333.9 
L 465.410002 82.752 
" clip-path="url(#p58928ea3fb)" style="fill: none; stroke-dasharray: 2.96,1.28; stroke-dashoffset: 0; stroke: #cccccc; stroke-opacity: 0.3; stroke-width: 0.8"/>
     </g>
     <g id="line2d_22"/>
     <g id="text_11">
      <text style="font-size: 10px; font-family: 'Arial', 'DejaVu Sans', 'Helvetica', sans-serif; text-anchor: middle; fill: #262626" x="465.410002" y="344.998437" transform="rotate(-0 465.410002 344.998437)">20</text>
     </g>
    </g>
    <g id="text_12">
     <text style="font-size: 12px; font-family: 'Arial', 'DejaVu Sans', 'Helvetica', sans-serif; text-anchor: middle; fill: #262626" x="271.933584" y="360.19625" transform="rotate(-0 271.933584 360.19625)">Key Frame Index</text>
    </g>
   </g>
   <g id="matplotlib.axis_2">
    <g id="ytick_1">
     <g id="line2d_23">
      <path d="M 50.596563 303.199522 
L 493.270606 303.199522 
" clip-path="url(#p58928ea3fb)" style="fill: none; stroke-dasharray: 2.96,1.28; stroke-dashoffset: 0; stroke: #cccccc; stroke-opacity: 0.3; stroke-width: 0.8"/>
     </g>
     <g id="line2d_24"/>
     <g id="text_13">
      <text style="font-size: 10px; font-family: 'Arial', 'DejaVu Sans', 'Helvetica', sans-serif; text-anchor: end; fill: #262626" x="47.096563" y="306.998741" transform="rotate(-0 47.096563 306.998741)">−1.0</text>
     </g>
    </g>
    <g id="ytick_2">
     <g id="line2d_25">
      <path d="M 50.596563 271.656764 
L 493.270606 271.656764 
" clip-path="url(#p58928ea3fb)" style="fill: none; stroke-dasharray: 2.96,1.28; stroke-dashoffset: 0; stroke: #cccccc; stroke-opacity: 0.3; stroke-width: 0.8"/>
     </g>
     <g id="line2d_26"/>
     <g id="text_14">
      <text style="font-size: 10px; font-family: 'Arial', 'DejaVu Sans', 'Helvetica', sans-serif; text-anchor: end; fill: #262626" x="47.096563" y="275.455982" transform="rotate(-0 47.096563 275.455982)">−0.5</text>
     </g>
    </g>
    <g id="ytick_3">
     <g id="line2d_27">
      <path d="M 50.596563 240.114005 
L 493.270606 240.114005 
" clip-path="url(#p58928ea3fb)" style="fill: none; stroke-dasharray: 2.96,1.28; stroke-dashoffset: 0; stroke: #cccccc; stroke-opacity: 0.3; stroke-width: 0.8"/>
     </g>
     <g id="line2d_28"/>
     <g id="text_15">
      <text style="font-size: 10px; font-family: 'Arial', 'DejaVu Sans', 'Helvetica', sans-serif; text-anchor: end; fill: #262626" x="47.096563" y="243.913224" transform="rotate(-0 47.096563 243.913224)">0.0</text>
     </g>
    </g>
    <g id="ytick_4">
     <g id="line2d_29">
      <path d="M 50.596563 208.571247 
L 493.270606 208.571247 
" clip-path="url(#p58928ea3fb)" style="fill: none; stroke-dasharray: 2.96,1.28; stroke-dashoffset: 0; stroke: #cccccc; stroke-opacity: 0.3; stroke-width: 0.8"/>
     </g>
     <g id="line2d_30"/>
     <g id="text_16">
      <text style="font-size: 10px; font-family: 'Arial', 'DejaVu Sans', 'Helvetica', sans-serif; text-anchor: end; fill: #262626" x="47.096563" y="212.370466" transform="rotate(-0 47.096563 212.370466)">0.5</text>
     </g>
    </g>
    <g id="ytick_5">
     <g id="line2d_31">
      <path d="M 50.596563 177.028489 
L 493.270606 177.028489 
" clip-path="url(#p58928ea3fb)" style="fill: none; stroke-dasharray: 2.96,1.28; stroke-dashoffset: 0; stroke: #cccccc; stroke-opacity: 0.3; stroke-width: 0.8"/>
     </g>
     <g id="line2d_32"/>
     <g id="text_17">
      <text style="font-size: 10px; font-family: 'Arial', 'DejaVu Sans', 'Helvetica', sans-serif; text-anchor: end; fill: #262626" x="47.096563" y="180.827708" transform="rotate(-0 47.096563 180.827708)">1.0</text>
     </g>
    </g>
    <g id="ytick_6">
     <g id="line2d_33">
      <path d="M 50.596563 145.485731 
L 493.270606 145.485731 
" clip-path="url(#p58928ea3fb)" style="fill: none; stroke-dasharray: 2.96,1.28; stroke-dashoffset: 0; stroke: #cccccc; stroke-opacity: 0.3; stroke-width: 0.8"/>
     </g>
     <g id="line2d_34"/>
     <g id="text_18">
      <text style="font-size: 10px; font-family: 'Arial', 'DejaVu Sans', 'Helvetica', sans-serif; text-anchor: end; fill: #262626" x="47.096563" y="149.284949" transform="rotate(-0 47.096563 149.284949)">1.5</text>
     </g>
    </g>
    <g id="ytick_7">
     <g id="line2d_35">
      <path d="M 50.596563 113.942972 
L 493.270606 113.942972 
" clip-path="url(#p58928ea3fb)" style="fill: none; stroke-dasharray: 2.96,1.28; stroke-dashoffset: 0; stroke: #cccccc; stroke-opacity: 0.3; stroke-width: 0.8"/>
     </g>
     <g id="line2d_36"/>
     <g id="text_19">
      <text style="font-size: 10px; font-family: 'Arial', 'DejaVu Sans', 'Helvetica', sans-serif; text-anchor: end; fill: #262626" x="47.096563" y="117.742191" transform="rotate(-0 47.096563 117.742191)">2.0</text>
     </g>
    </g>
    <g id="text_20">
     <text style="font-size: 12px; font-family: 'Arial', 'DejaVu Sans', 'Helvetica', sans-serif; text-anchor: middle; fill: #262626" x="16.318125" y="208.326" transform="rotate(-90 16.318125 208.326)">Attention Weight (Logits)</text>
    </g>
   </g>
   <g id="patch_3">
    <path d="M 70.71811 240.114005 
L 86.196223 240.114005 
L 86.196223 259.51171 
L 70.71811 259.51171 
z
" clip-path="url(#p58928ea3fb)" style="fill: #2e86ab; opacity: 0.7"/>
   </g>
   <g id="patch_4">
    <path d="M 90.065752 240.114005 
L 105.543865 240.114005 
L 105.543865 262.353135 
L 90.065752 262.353135 
z
" clip-path="url(#p58928ea3fb)" style="fill: #2e86ab; opacity: 0.7"/>
   </g>
   <g id="patch_5">
    <path d="M 109.413393 240.114005 
L 124.891507 240.114005 
L 124.891507 289.950275 
L 109.413393 289.950275 
z
" clip-path="url(#p58928ea3fb)" style="fill: #2e86ab; opacity: 0.7"/>
   </g>
   <g id="patch_6">
    <path d="M 128.761035 240.114005 
L 144.239149 240.114005 
L 144.239149 312.130552 
L 128.761035 312.130552 
z
" clip-path="url(#p58928ea3fb)" style="fill: #2e86ab; opacity: 0.7"/>
   </g>
   <g id="patch_7">
    <path d="M 148.108677 240.114005 
L 163.58679 240.114005 
L 163.58679 322.484182 
L 148.108677 322.484182 
z
" clip-path="url(#p58928ea3fb)" style="fill: #2e86ab; opacity: 0.7"/>
   </g>
   <g id="patch_8">
    <path d="M 167.456319 240.114005 
L 182.934432 240.114005 
L 182.934432 308.773672 
L 167.456319 308.773672 
z
" clip-path="url(#p58928ea3fb)" style="fill: #2e86ab; opacity: 0.7"/>
   </g>
   <g id="patch_9">
    <path d="M 186.80396 240.114005 
L 202.282074 240.114005 
L 202.282074 285.721592 
L 186.80396 285.721592 
z
" clip-path="url(#p58928ea3fb)" style="fill: #2e86ab; opacity: 0.7"/>
   </g>
   <g id="patch_10">
    <path d="M 206.151602 240.114005 
L 221.629716 240.114005 
L 221.629716 263.094934 
L 206.151602 263.094934 
z
" clip-path="url(#p58928ea3fb)" style="fill: #2e86ab; opacity: 0.7"/>
   </g>
   <g id="patch_11">
    <path d="M 225.499244 240.114005 
L 240.977357 240.114005 
L 240.977357 250.252631 
L 225.499244 250.252631 
z
" clip-path="url(#p58928ea3fb)" style="fill: #2e86ab; opacity: 0.7"/>
   </g>
   <g id="patch_12">
    <path d="M 244.846886 240.114005 
L 260.324999 240.114005 
L 260.324999 238.899541 
L 244.846886 238.899541 
z
" clip-path="url(#p58928ea3fb)" style="fill: #2e86ab; opacity: 0.7"/>
   </g>
   <g id="patch_13">
    <path d="M 264.194527 240.114005 
L 279.672641 240.114005 
L 279.672641 233.408717 
L 264.194527 233.408717 
z
" clip-path="url(#p58928ea3fb)" style="fill: #2e86ab; opacity: 0.7"/>
   </g>
   <g id="patch_14">
    <path d="M 283.542169 240.114005 
L 299.020283 240.114005 
L 299.020283 226.862472 
L 283.542169 226.862472 
z
" clip-path="url(#p58928ea3fb)" style="fill: #2e86ab; opacity: 0.7"/>
   </g>
   <g id="patch_15">
    <path d="M 302.889811 240.114005 
L 318.367924 240.114005 
L 318.367924 216.837808 
L 302.889811 216.837808 
z
" clip-path="url(#p58928ea3fb)" style="fill: #2e86ab; opacity: 0.7"/>
   </g>
   <g id="patch_16">
    <path d="M 322.237453 240.114005 
L 337.715566 240.114005 
L 337.715566 211.260943 
L 322.237453 211.260943 
z
" clip-path="url(#p58928ea3fb)" style="fill: #2e86ab; opacity: 0.7"/>
   </g>
   <g id="patch_17">
    <path d="M 341.585094 240.114005 
L 357.063208 240.114005 
L 357.063208 216.343825 
L 341.585094 216.343825 
z
" clip-path="url(#p58928ea3fb)" style="fill: #2e86ab; opacity: 0.7"/>
   </g>
   <g id="patch_18">
    <path d="M 360.932736 240.114005 
L 376.41085 240.114005 
L 376.41085 214.43927 
L 360.932736 214.43927 
z
" clip-path="url(#p58928ea3fb)" style="fill: #2e86ab; opacity: 0.7"/>
   </g>
   <g id="patch_19">
    <path d="M 380.280378 240.114005 
L 395.758491 240.114005 
L 395.758491 199.723062 
L 380.280378 199.723062 
z
" clip-path="url(#p58928ea3fb)" style="fill: #2e86ab; opacity: 0.7"/>
   </g>
   <g id="patch_20">
    <path d="M 399.62802 240.114005 
L 415.106133 240.114005 
L 415.106133 170.761606 
L 399.62802 170.761606 
z
" clip-path="url(#p58928ea3fb)" style="fill: #2e86ab; opacity: 0.7"/>
   </g>
   <g id="patch_21">
    <path d="M 418.975661 240.114005 
L 434.453775 240.114005 
L 434.453775 110.638653 
L 418.975661 110.638653 
z
" clip-path="url(#p58928ea3fb)" style="fill: #2e86ab; opacity: 0.7"/>
   </g>
   <g id="patch_22">
    <path d="M 438.323303 240.114005 
L 453.801417 240.114005 
L 453.801417 94.167818 
L 438.323303 94.167818 
z
" clip-path="url(#p58928ea3fb)" style="fill: #2e86ab; opacity: 0.7"/>
   </g>
   <g id="patch_23">
    <path d="M 457.670945 240.114005 
L 473.149058 240.114005 
L 473.149058 97.930174 
L 457.670945 97.930174 
z
" clip-path="url(#p58928ea3fb)" style="fill: #2e86ab; opacity: 0.7"/>
   </g>
   <g id="line2d_37">
    <path d="M 78.457167 259.51171 
L 97.804808 262.353135 
L 117.15245 289.950275 
L 136.500092 312.130552 
L 155.847734 322.484182 
L 175.195375 308.773672 
L 194.543017 285.721592 
L 213.890659 263.094934 
L 233.238301 250.252631 
L 252.585942 238.899541 
L 271.933584 233.408717 
L 291.281226 226.862472 
L 310.628868 216.837808 
L 329.976509 211.260943 
L 349.324151 216.343825 
L 368.671793 214.43927 
L 388.019435 199.723062 
L 407.367076 170.761606 
L 426.714718 110.638653 
L 446.06236 94.167818 
L 465.410002 97.930174 
" clip-path="url(#p58928ea3fb)" style="fill: none; stroke: #2e86ab; stroke-width: 2; stroke-linecap: round"/>
    <defs>
     <path id="m89da718acd" d="M 0 2.5 
C 0.663008 2.5 1.29895 2.236584 1.767767 1.767767 
C 2.236584 1.29895 2.5 0.663008 2.5 0 
C 2.5 -0.663008 2.236584 -1.29895 1.767767 -1.767767 
C 1.29895 -2.236584 0.663008 -2.5 0 -2.5 
C -0.663008 -2.5 -1.29895 -2.236584 -1.767767 -1.767767 
C -2.236584 -1.29895 -2.5 -0.663008 -2.5 0 
C -2.5 0.663008 -2.236584 1.29895 -1.767767 1.767767 
C -1.29895 2.236584 -0.663008 2.5 0 2.5 
z
" style="stroke: #2e86ab"/>
    </defs>
    <g clip-path="url(#p58928ea3fb)">
     <use xlink:href="#m89da718acd" x="78.457167" y="259.51171" style="fill: #2e86ab; stroke: #2e86ab"/>
     <use xlink:href="#m89da718acd" x="97.804808" y="262.353135" style="fill: #2e86ab; stroke: #2e86ab"/>
     <use xlink:href="#m89da718acd" x="117.15245" y="289.950275" style="fill: #2e86ab; stroke: #2e86ab"/>
     <use xlink:href="#m89da718acd" x="136.500092" y="312.130552" style="fill: #2e86ab; stroke: #2e86ab"/>
     <use xlink:href="#m89da718acd" x="155.847734" y="322.484182" style="fill: #2e86ab; stroke: #2e86ab"/>
     <use xlink:href="#m89da718acd" x="175.195375" y="308.773672" style="fill: #2e86ab; stroke: #2e86ab"/>
     <use xlink:href="#m89da718acd" x="194.543017" y="285.721592" style="fill: #2e86ab; stroke: #2e86ab"/>
     <use xlink:href="#m89da718acd" x="213.890659" y="263.094934" style="fill: #2e86ab; stroke: #2e86ab"/>
     <use xlink:href="#m89da718acd" x="233.238301" y="250.252631" style="fill: #2e86ab; stroke: #2e86ab"/>
     <use xlink:href="#m89da718acd" x="252.585942" y="238.899541" style="fill: #2e86ab; stroke: #2e86ab"/>
     <use xlink:href="#m89da718acd" x="271.933584" y="233.408717" style="fill: #2e86ab; stroke: #2e86ab"/>
     <use xlink:href="#m89da718acd" x="291.281226" y="226.862472" style="fill: #2e86ab; stroke: #2e86ab"/>
     <use xlink:href="#m89da718acd" x="310.628868" y="216.837808" style="fill: #2e86ab; stroke: #2e86ab"/>
     <use xlink:href="#m89da718acd" x="329.976509" y="211.260943" style="fill: #2e86ab; stroke: #2e86ab"/>
     <use xlink:href="#m89da718acd" x="349.324151" y="216.343825" style="fill: #2e86ab; stroke: #2e86ab"/>
     <use xlink:href="#m89da718acd" x="368.671793" y="214.43927" style="fill: #2e86ab; stroke: #2e86ab"/>
     <use xlink:href="#m89da718acd" x="388.019435" y="199.723062" style="fill: #2e86ab; stroke: #2e86ab"/>
     <use xlink:href="#m89da718acd" x="407.367076" y="170.761606" style="fill: #2e86ab; stroke: #2e86ab"/>
     <use xlink:href="#m89da718acd" x="426.714718" y="110.638653" style="fill: #2e86ab; stroke: #2e86ab"/>
     <use xlink:href="#m89da718acd" x="446.06236" y="94.167818" style="fill: #2e86ab; stroke: #2e86ab"/>
     <use xlink:href="#m89da718acd" x="465.410002" y="97.930174" style="fill: #2e86ab; stroke: #2e86ab"/>
    </g>
   </g>
   <g id="patch_24">
    <path d="M 50.596563 333.9 
L 50.596563 82.752 
" style="fill: none; stroke: #cccccc; stroke-linejoin: miter; stroke-linecap: square"/>
   </g>
   <g id="patch_25">
    <path d="M 493.270606 333.9 
L 493.270606 82.752 
" style="fill: none; stroke: #cccccc; stroke-linejoin: miter; stroke-linecap: square"/>
   </g>
   <g id="patch_26">
    <path d="M 50.596563 333.9 
L 493.270606 333.9 
" style="fill: none; stroke: #cccccc; stroke-linejoin: miter; stroke-linecap: square"/>
   </g>
   <g id="patch_27">
    <path d="M 50.596563 82.752 
L 493.270606 82.752 
" style="fill: none; stroke: #cccccc; stroke-linejoin: miter; stroke-linecap: square"/>
   </g>
   <g id="text_21">
    <text style="font-weight: 700; font-size: 9px; font-family: 'Arial', 'DejaVu Sans', 'Helvetica', sans-serif; text-anchor: start; fill: #006400" x="451.06236" y="89.167818" transform="rotate(-0 451.06236 89.167818)">max@19</text>
   </g>
   <g id="text_22">
    <text style="font-weight: 700; font-size: 13px; font-family: 'Arial', 'DejaVu Sans', 'Helvetica', sans-serif; text-anchor: middle; fill: #262626" x="271.933584" y="76.752" transform="rotate(-0 271.933584 76.752)">L1H1 (Layer 1, Head 1)</text>
   </g>
  </g>
  <g id="axes_2">
   <g id="patch_28">
    <path d="M 548.842519 333.9 
L 991.516562 333.9 
L 991.516562 82.752 
L 548.842519 82.752 
z
" style="fill: #ffffff"/>
   </g>
   <g id="matplotlib.axis_3">
    <g id="xtick_12">
     <g id="line2d_38">
      <path d="M 576.703123 333.9 
L 576.703123 82.752 
" clip-path="url(#p836ca21f78)" style="fill: none; stroke-dasharray: 2.96,1.28; stroke-dashoffset: 0; stroke: #cccccc; stroke-opacity: 0.3; stroke-width: 0.8"/>
     </g>
     <g id="line2d_39"/>
     <g id="text_23">
      <text style="font-size: 10px; font-family: 'Arial', 'DejaVu Sans', 'Helvetica', sans-serif; text-anchor: middle; fill: #262626" x="576.703123" y="344.998437" transform="rotate(-0 576.703123 344.998437)">0</text>
     </g>
    </g>
    <g id="xtick_13">
     <g id="line2d_40">
      <path d="M 615.398407 333.9 
L 615.398407 82.752 
" clip-path="url(#p836ca21f78)" style="fill: none; stroke-dasharray: 2.96,1.28; stroke-dashoffset: 0; stroke: #cccccc; stroke-opacity: 0.3; stroke-width: 0.8"/>
     </g>
     <g id="line2d_41"/>
     <g id="text_24">
      <text style="font-size: 10px; font-family: 'Arial', 'DejaVu Sans', 'Helvetica', sans-serif; text-anchor: middle; fill: #262626" x="615.398407" y="344.998437" transform="rotate(-0 615.398407 344.998437)">2</text>
     </g>
    </g>
    <g id="xtick_14">
     <g id="line2d_42">
      <path d="M 654.09369 333.9 
L 654.09369 82.752 
" clip-path="url(#p836ca21f78)" style="fill: none; stroke-dasharray: 2.96,1.28; stroke-dashoffset: 0; stroke: #cccccc; stroke-opacity: 0.3; stroke-width: 0.8"/>
     </g>
     <g id="line2d_43"/>
     <g id="text_25">
      <text style="font-size: 10px; font-family: 'Arial', 'DejaVu Sans', 'Helvetica', sans-serif; text-anchor: middle; fill: #262626" x="654.09369" y="344.998437" transform="rotate(-0 654.09369 344.998437)">4</text>
     </g>
    </g>
    <g id="xtick_15">
     <g id="line2d_44">
      <path d="M 692.788974 333.9 
L 692.788974 82.752 
" clip-path="url(#p836ca21f78)" style="fill: none; stroke-dasharray: 2.96,1.28; stroke-dashoffset: 0; stroke: #cccccc; stroke-opacity: 0.3; stroke-width: 0.8"/>
     </g>
     <g id="line2d_45"/>
     <g id="text_26">
      <text style="font-size: 10px; font-family: 'Arial', 'DejaVu Sans', 'Helvetica', sans-serif; text-anchor: middle; fill: #262626" x="692.788974" y="344.998437" transform="rotate(-0 692.788974 344.998437)">6</text>
     </g>
    </g>
    <g id="xtick_16">
     <g id="line2d_46">
      <path d="M 731.484257 333.9 
L 731.484257 82.752 
" clip-path="url(#p836ca21f78)" style="fill: none; stroke-dasharray: 2.96,1.28; stroke-dashoffset: 0; stroke: #cccccc; stroke-opacity: 0.3; stroke-width: 0.8"/>
     </g>
     <g id="line2d_47"/>
     <g id="text_27">
      <text style="font-size: 10px; font-family: 'Arial', 'DejaVu Sans', 'Helvetica', sans-serif; text-anchor: middle; fill: #262626" x="731.484257" y="344.998437" transform="rotate(-0 731.484257 344.998437)">8</text>
     </g>
    </g>
    <g id="xtick_17">
     <g id="line2d_48">
      <path d="M 770.179541 333.9 
L 770.179541 82.752 
" clip-path="url(#p836ca21f78)" style="fill: none; stroke-dasharray: 2.96,1.28; stroke-dashoffset: 0; stroke: #cccccc; stroke-opacity: 0.3; stroke-width: 0.8"/>
     </g>
     <g id="line2d_49"/>
     <g id="text_28">
      <text style="font-size: 10px; font-family: 'Arial', 'DejaVu Sans', 'Helvetica', sans-serif; text-anchor: middle; fill: #262626" x="770.179541" y="344.998437" transform="rotate(-0 770.179541 344.998437)">10</text>
     </g>
    </g>
    <g id="xtick_18">
     <g id="line2d_50">
      <path d="M 808.874824 333.9 
L 808.874824 82.752 
" clip-path="url(#p836ca21f78)" style="fill: none; stroke-dasharray: 2.96,1.28; stroke-dashoffset: 0; stroke: #cccccc; stroke-opacity: 0.3; stroke-width: 0.8"/>
     </g>
     <g id="line2d_51"/>
     <g id="text_29">
      <text style="font-size: 10px; font-family: 'Arial', 'DejaVu Sans', 'Helvetica', sans-serif; text-anchor: middle; fill: #262626" x="808.874824" y="344.998437" transform="rotate(-0 808.874824 344.998437)">12</text>
     </g>
    </g>
    <g id="xtick_19">
     <g id="line2d_52">
      <path d="M 847.570108 333.9 
L 847.570108 82.752 
" clip-path="url(#p836ca21f78)" style="fill: none; stroke-dasharray: 2.96,1.28; stroke-dashoffset: 0; stroke: #cccccc; stroke-opacity: 0.3; stroke-width: 0.8"/>
     </g>
     <g id="line2d_53"/>
     <g id="text_30">
      <text style="font-size: 10px; font-family: 'Arial', 'DejaVu Sans', 'Helvetica', sans-serif; text-anchor: middle; fill: #262626" x="847.570108" y="344.998437" transform="rotate(-0 847.570108 344.998437)">14</text>
     </g>
    </g>
    <g id="xtick_20">
     <g id="line2d_54">
      <path d="M 886.265391 333.9 
L 886.265391 82.752 
" clip-path="url(#p836ca21f78)" style="fill: none; stroke-dasharray: 2.96,1.28; stroke-dashoffset: 0; stroke: #cccccc; stroke-opacity: 0.3; stroke-width: 0.8"/>
     </g>
     <g id="line2d_55"/>
     <g id="text_31">
      <text style="font-size: 10px; font-family: 'Arial', 'DejaVu Sans', 'Helvetica', sans-serif; text-anchor: middle; fill: #262626" x="886.265391" y="344.998437" transform="rotate(-0 886.265391 344.998437)">16</text>
     </g>
    </g>
    <g id="xtick_21">
     <g id="line2d_56">
      <path d="M 924.960675 333.9 
L 924.960675 82.752 
" clip-path="url(#p836ca21f78)" style="fill: none; stroke-dasharray: 2.96,1.28; stroke-dashoffset: 0; stroke: #cccccc; stroke-opacity: 0.3; stroke-width: 0.8"/>
     </g>
     <g id="line2d_57"/>
     <g id="text_32">
      <text style="font-size: 10px; font-family: 'Arial', 'DejaVu Sans', 'Helvetica', sans-serif; text-anchor: middle; fill: #262626" x="924.960675" y="344.998437" transform="rotate(-0 924.960675 344.998437)">18</text>
     </g>
    </g>
    <g id="xtick_22">
     <g id="line2d_58">
      <path d="M 963.655958 333.9 
L 963.655958 82.752 
" clip-path="url(#p836ca21f78)" style="fill: none; stroke-dasharray: 2.96,1.28; stroke-dashoffset: 0; stroke: #cccccc; stroke-opacity: 0.3; stroke-width: 0.8"/>
     </g>
     <g id="line2d_59"/>
     <g id="text_33">
      <text style="font-size: 10px; font-family: 'Arial', 'DejaVu Sans', 'Helvetica', sans-serif; text-anchor: middle; fill: #262626" x="963.655958" y="344.998437" transform="rotate(-0 963.655958 344.998437)">20</text>
     </g>
    </g>
    <g id="text_34">
     <text style="font-size: 12px; font-family: 'Arial', 'DejaVu Sans', 'Helvetica', sans-serif; text-anchor: middle; fill: #262626" x="770.179541" y="360.19625" transform="rotate(-0 770.179541 360.19625)">Key Frame Index</text>
    </g>
   </g>
   <g id="matplotlib.axis_4">
    <g id="ytick_8">
     <g id="line2d_60">
      <path d="M 548.842519 303.516024 
L 991.516562 303.516024 
" clip-path="url(#p836ca21f78)" style="fill: none; stroke-dasharray: 2.96,1.28; stroke-dashoffset: 0; stroke: #cccccc; stroke-opacity: 0.3; stroke-width: 0.8"/>
     </g>
     <g id="line2d_61"/>
     <g id="text_35">
      <text style="font-size: 10px; font-family: 'Arial', 'DejaVu Sans', 'Helvetica', sans-serif; text-anchor: end; fill: #262626" x="545.342519" y="307.315243" transform="rotate(-0 545.342519 307.315243)">−2</text>
     </g>
    </g>
    <g id="ytick_9">
     <g id="line2d_62">
      <path d="M 548.842519 254.231293 
L 991.516562 254.231293 
" clip-path="url(#p836ca21f78)" style="fill: none; stroke-dasharray: 2.96,1.28; stroke-dashoffset: 0; stroke: #cccccc; stroke-opacity: 0.3; stroke-width: 0.8"/>
     </g>
     <g id="line2d_63"/>
     <g id="text_36">
      <text style="font-size: 10px; font-family: 'Arial', 'DejaVu Sans', 'Helvetica', sans-serif; text-anchor: end; fill: #262626" x="545.342519" y="258.030512" transform="rotate(-0 545.342519 258.030512)">−1</text>
     </g>
    </g>
    <g id="ytick_10">
     <g id="line2d_64">
      <path d="M 548.842519 204.946563 
L 991.516562 204.946563 
" clip-path="url(#p836ca21f78)" style="fill: none; stroke-dasharray: 2.96,1.28; stroke-dashoffset: 0; stroke: #cccccc; stroke-opacity: 0.3; stroke-width: 0.8"/>
     </g>
     <g id="line2d_65"/>
     <g id="text_37">
      <text style="font-size: 10px; font-family: 'Arial', 'DejaVu Sans', 'Helvetica', sans-serif; text-anchor: end; fill: #262626" x="545.342519" y="208.745782" transform="rotate(-0 545.342519 208.745782)">0</text>
     </g>
    </g>
    <g id="ytick_11">
     <g id="line2d_66">
      <path d="M 548.842519 155.661832 
L 991.516562 155.661832 
" clip-path="url(#p836ca21f78)" style="fill: none; stroke-dasharray: 2.96,1.28; stroke-dashoffset: 0; stroke: #cccccc; stroke-opacity: 0.3; stroke-width: 0.8"/>
     </g>
     <g id="line2d_67"/>
     <g id="text_38">
      <text style="font-size: 10px; font-family: 'Arial', 'DejaVu Sans', 'Helvetica', sans-serif; text-anchor: end; fill: #262626" x="545.342519" y="159.461051" transform="rotate(-0 545.342519 159.461051)">1</text>
     </g>
    </g>
    <g id="ytick_12">
     <g id="line2d_68">
      <path d="M 548.842519 106.377102 
L 991.516562 106.377102 
" clip-path="url(#p836ca21f78)" style="fill: none; stroke-dasharray: 2.96,1.28; stroke-dashoffset: 0; stroke: #cccccc; stroke-opacity: 0.3; stroke-width: 0.8"/>
     </g>
     <g id="line2d_69"/>
     <g id="text_39">
      <text style="font-size: 10px; font-family: 'Arial', 'DejaVu Sans', 'Helvetica', sans-serif; text-anchor: end; fill: #262626" x="545.342519" y="110.176321" transform="rotate(-0 545.342519 110.176321)">2</text>
     </g>
    </g>
    <g id="text_40">
     <text style="font-size: 12px; font-family: 'Arial', 'DejaVu Sans', 'Helvetica', sans-serif; text-anchor: middle; fill: #262626" x="524.104707" y="208.326" transform="rotate(-90 524.104707 208.326)">Attention Weight (Logits)</text>
    </g>
   </g>
   <g id="patch_29">
    <path d="M 568.964067 204.946563 
L 584.44218 204.946563 
L 584.44218 322.484182 
L 568.964067 322.484182 
z
" clip-path="url(#p836ca21f78)" style="fill: #a23b72; opacity: 0.7"/>
   </g>
   <g id="patch_30">
    <path d="M 588.311708 204.946563 
L 603.789822 204.946563 
L 603.789822 166.251018 
L 588.311708 166.251018 
z
" clip-path="url(#p836ca21f78)" style="fill: #a23b72; opacity: 0.7"/>
   </g>
   <g id="patch_31">
    <path d="M 607.65935 204.946563 
L 623.137464 204.946563 
L 623.137464 171.821922 
L 607.65935 171.821922 
z
" clip-path="url(#p836ca21f78)" style="fill: #a23b72; opacity: 0.7"/>
   </g>
   <g id="patch_32">
    <path d="M 627.006992 204.946563 
L 642.485105 204.946563 
L 642.485105 149.372486 
L 627.006992 149.372486 
z
" clip-path="url(#p836ca21f78)" style="fill: #a23b72; opacity: 0.7"/>
   </g>
   <g id="patch_33">
    <path d="M 646.354634 204.946563 
L 661.832747 204.946563 
L 661.832747 172.363304 
L 646.354634 172.363304 
z
" clip-path="url(#p836ca21f78)" style="fill: #a23b72; opacity: 0.7"/>
   </g>
   <g id="patch_34">
    <path d="M 665.702275 204.946563 
L 681.180389 204.946563 
L 681.180389 204.070348 
L 665.702275 204.070348 
z
" clip-path="url(#p836ca21f78)" style="fill: #a23b72; opacity: 0.7"/>
   </g>
   <g id="patch_35">
    <path d="M 685.049917 204.946563 
L 700.528031 204.946563 
L 700.528031 202.799 
L 685.049917 202.799 
z
" clip-path="url(#p836ca21f78)" style="fill: #a23b72; opacity: 0.7"/>
   </g>
   <g id="patch_36">
    <path d="M 704.397559 204.946563 
L 719.875672 204.946563 
L 719.875672 204.065618 
L 704.397559 204.065618 
z
" clip-path="url(#p836ca21f78)" style="fill: #a23b72; opacity: 0.7"/>
   </g>
   <g id="patch_37">
    <path d="M 723.745201 204.946563 
L 739.223314 204.946563 
L 739.223314 178.615202 
L 723.745201 178.615202 
z
" clip-path="url(#p836ca21f78)" style="fill: #a23b72; opacity: 0.7"/>
   </g>
   <g id="patch_38">
    <path d="M 743.092842 204.946563 
L 758.570956 204.946563 
L 758.570956 135.934722 
L 743.092842 135.934722 
z
" clip-path="url(#p836ca21f78)" style="fill: #a23b72; opacity: 0.7"/>
   </g>
   <g id="patch_39">
    <path d="M 762.440484 204.946563 
L 777.918598 204.946563 
L 777.918598 123.231757 
L 762.440484 123.231757 
z
" clip-path="url(#p836ca21f78)" style="fill: #a23b72; opacity: 0.7"/>
   </g>
   <g id="patch_40">
    <path d="M 781.788126 204.946563 
L 797.266239 204.946563 
L 797.266239 139.162938 
L 781.788126 139.162938 
z
" clip-path="url(#p836ca21f78)" style="fill: #a23b72; opacity: 0.7"/>
   </g>
   <g id="patch_41">
    <path d="M 801.135768 204.946563 
L 816.613881 204.946563 
L 816.613881 136.348988 
L 801.135768 136.348988 
z
" clip-path="url(#p836ca21f78)" style="fill: #a23b72; opacity: 0.7"/>
   </g>
   <g id="patch_42">
    <path d="M 820.483409 204.946563 
L 835.961523 204.946563 
L 835.961523 135.809792 
L 820.483409 135.809792 
z
" clip-path="url(#p836ca21f78)" style="fill: #a23b72; opacity: 0.7"/>
   </g>
   <g id="patch_43">
    <path d="M 839.831051 204.946563 
L 855.309165 204.946563 
L 855.309165 119.823543 
L 839.831051 119.823543 
z
" clip-path="url(#p836ca21f78)" style="fill: #a23b72; opacity: 0.7"/>
   </g>
   <g id="patch_44">
    <path d="M 859.178693 204.946563 
L 874.656806 204.946563 
L 874.656806 94.167818 
L 859.178693 94.167818 
z
" clip-path="url(#p836ca21f78)" style="fill: #a23b72; opacity: 0.7"/>
   </g>
   <g id="patch_45">
    <path d="M 878.526335 204.946563 
L 894.004448 204.946563 
L 894.004448 105.008944 
L 878.526335 105.008944 
z
" clip-path="url(#p836ca21f78)" style="fill: #a23b72; opacity: 0.7"/>
   </g>
   <g id="patch_46">
    <path d="M 897.873976 204.946563 
L 913.35209 204.946563 
L 913.35209 152.407631 
L 897.873976 152.407631 
z
" clip-path="url(#p836ca21f78)" style="fill: #a23b72; opacity: 0.7"/>
   </g>
   <g id="patch_47">
    <path d="M 917.221618 204.946563 
L 932.699732 204.946563 
L 932.699732 152.413535 
L 917.221618 152.413535 
z
" clip-path="url(#p836ca21f78)" style="fill: #a23b72; opacity: 0.7"/>
   </g>
   <g id="patch_48">
    <path d="M 936.56926 204.946563 
L 952.047373 204.946563 
L 952.047373 173.929567 
L 936.56926 173.929567 
z
" clip-path="url(#p836ca21f78)" style="fill: #a23b72; opacity: 0.7"/>
   </g>
   <g id="patch_49">
    <path d="M 955.916902 204.946563 
L 971.395015 204.946563 
L 971.395015 170.071871 
L 955.916902 170.071871 
z
" clip-path="url(#p836ca21f78)" style="fill: #a23b72; opacity: 0.7"/>
   </g>
   <g id="line2d_70">
    <path d="M 576.703123 322.484182 
L 596.050765 166.251018 
L 615.398407 171.821922 
L 634.746049 149.372486 
L 654.09369 172.363304 
L 673.441332 204.070348 
L 692.788974 202.799 
L 712.136616 204.065618 
L 731.484257 178.615202 
L 750.831899 135.934722 
L 770.179541 123.231757 
L 789.527183 139.162938 
L 808.874824 136.348988 
L 828.222466 135.809792 
L 847.570108 119.823543 
L 866.91775 94.167818 
L 886.265391 105.008944 
L 905.613033 152.407631 
L 924.960675 152.413535 
L 944.308317 173.929567 
L 963.655958 170.071871 
" clip-path="url(#p836ca21f78)" style="fill: none; stroke: #a23b72; stroke-width: 2; stroke-linecap: round"/>
    <defs>
     <path id="m02c47586dd" d="M 0 2.5 
C 0.663008 2.5 1.29895 2.236584 1.767767 1.767767 
C 2.236584 1.29895 2.5 0.663008 2.5 0 
C 2.5 -0.663008 2.236584 -1.29895 1.767767 -1.767767 
C 1.29895 -2.236584 0.663008 -2.5 0 -2.5 
C -0.663008 -2.5 -1.29895 -2.236584 -1.767767 -1.767767 
C -2.236584 -1.29895 -2.5 -0.663008 -2.5 0 
C -2.5 0.663008 -2.236584 1.29895 -1.767767 1.767767 
C -1.29895 2.236584 -0.663008 2.5 0 2.5 
z
" style="stroke: #a23b72"/>
    </defs>
    <g clip-path="url(#p836ca21f78)">
     <use xlink:href="#m02c47586dd" x="576.703123" y="322.484182" style="fill: #a23b72; stroke: #a23b72"/>
     <use xlink:href="#m02c47586dd" x="596.050765" y="166.251018" style="fill: #a23b72; stroke: #a23b72"/>
     <use xlink:href="#m02c47586dd" x="615.398407" y="171.821922" style="fill: #a23b72; stroke: #a23b72"/>
     <use xlink:href="#m02c47586dd" x="634.746049" y="149.372486" style="fill: #a23b72; stroke: #a23b72"/>
     <use xlink:href="#m02c47586dd" x="654.09369" y="172.363304" style="fill: #a23b72; stroke: #a23b72"/>
     <use xlink:href="#m02c47586dd" x="673.441332" y="204.070348" style="fill: #a23b72; stroke: #a23b72"/>
     <use xlink:href="#m02c47586dd" x="692.788974" y="202.799" style="fill: #a23b72; stroke: #a23b72"/>
     <use xlink:href="#m02c47586dd" x="712.136616" y="204.065618" style="fill: #a23b72; stroke: #a23b72"/>
     <use xlink:href="#m02c47586dd" x="731.484257" y="178.615202" style="fill: #a23b72; stroke: #a23b72"/>
     <use xlink:href="#m02c47586dd" x="750.831899" y="135.934722" style="fill: #a23b72; stroke: #a23b72"/>
     <use xlink:href="#m02c47586dd" x="770.179541" y="123.231757" style="fill: #a23b72; stroke: #a23b72"/>
     <use xlink:href="#m02c47586dd" x="789.527183" y="139.162938" style="fill: #a23b72; stroke: #a23b72"/>
     <use xlink:href="#m02c47586dd" x="808.874824" y="136.348988" style="fill: #a23b72; stroke: #a23b72"/>
     <use xlink:href="#m02c47586dd" x="828.222466" y="135.809792" style="fill: #a23b72; stroke: #a23b72"/>
     <use xlink:href="#m02c47586dd" x="847.570108" y="119.823543" style="fill: #a23b72; stroke: #a23b72"/>
     <use xlink:href="#m02c47586dd" x="866.91775" y="94.167818" style="fill: #a23b72; stroke: #a23b72"/>
     <use xlink:href="#m02c47586dd" x="886.265391" y="105.008944" style="fill: #a23b72; stroke: #a23b72"/>
     <use xlink:href="#m02c47586dd" x="905.613033" y="152.407631" style="fill: #a23b72; stroke: #a23b72"/>
     <use xlink:href="#m02c47586dd" x="924.960675" y="152.413535" style="fill: #a23b72; stroke: #a23b72"/>
     <use xlink:href="#m02c47586dd" x="944.308317" y="173.929567" style="fill: #a23b72; stroke: #a23b72"/>
     <use xlink:href="#m02c47586dd" x="963.655958" y="170.071871" style="fill: #a23b72; stroke: #a23b72"/>
    </g>
   </g>
   <g id="patch_50">
    <path d="M 548.842519 333.9 
L 548.842519 82.752 
" style="fill: none; stroke: #cccccc; stroke-linejoin: miter; stroke-linecap: square"/>
   </g>
   <g id="patch_51">
    <path d="M 991.516562 333.9 
L 991.516562 82.752 
" style="fill: none; stroke: #cccccc; stroke-linejoin: miter; stroke-linecap: square"/>
   </g>
   <g id="patch_52">
    <path d="M 548.842519 333.9 
L 991.516562 333.9 
" style="fill: none; stroke: #cccccc; stroke-linejoin: miter; stroke-linecap: square"/>
   </g>
   <g id="patch_53">
    <path d="M 548.842519 82.752 
L 991.516562 82.752 
" style="fill: none; stroke: #cccccc; stroke-linejoin: miter; stroke-linecap: square"/>
   </g>
   <g id="text_41">
    <text style="font-weight: 700; font-size: 9px; font-family: 'Arial', 'DejaVu Sans', 'Helvetica', sans-serif; text-anchor: start; fill: #006400" x="871.91775" y="89.167818" transform="rotate(-0 871.91775 89.167818)">max@15</text>
   </g>
   <g id="text_42">
    <text style="font-weight: 700; font-size: 13px; font-family: 'Arial', 'DejaVu Sans', 'Helvetica', sans-serif; text-anchor: middle; fill: #262626" x="770.179541" y="76.752" transform="rotate(-0 770.179541 76.752)">L5H10 (Layer 5, Head 10)</text>
   </g>
  </g>
  <g id="text_43">
   <text style="font-weight: 700; font-size: 14px; font-family: 'Arial', 'DejaVu Sans', 'Helvetica', sans-serif; fill: #262626" transform="translate(296.490625 17.837812)">Figure 4: Frame-wise Attention Weight Distribution</text>
   <text style="font-weight: 700; font-size: 14px; font-family: 'Arial', 'DejaVu Sans', 'Helvetica', sans-serif; fill: #262626" transform="translate(333.842188 33.624125)">(Query: frames 18-20 → Key: frames 0-17)</text>
  </g>
 </g>
 <defs>
  <clipPath id="p58928ea3fb">
   <rect x="50.596563" y="82.752" width="442.674043" height="251.148"/>
  </clipPath>
  <clipPath id="p836ca21f78">
   <rect x="548.842519" y="82.752" width="442.674043" height="251.148"/>
  </clipPath>
 </defs>
</svg>
